<svg version="1.1" id="Layer_1" xmlns="http://www.w3.org/2000/svg" xmlns:xlink="http://www.w3.org/1999/xlink" x="0px" y="0px"
	 width="100%" viewBox="0 0 579 512" enable-background="new 0 0 579 512" xml:space="preserve">
<path fill="#000000" opacity="1.000000" stroke="none" 
	d="
M386.000000,513.000000 
	C257.362671,513.000000 129.225372,513.000000 1.044025,513.000000 
	C1.044025,342.401764 1.044025,171.803543 1.044025,1.102650 
	C193.887314,1.102650 386.774719,1.102650 579.831055,1.102650 
	C579.831055,171.666534 579.831055,342.333252 579.831055,513.000000 
	C515.470154,513.000000 450.985077,513.000000 386.000000,513.000000 
M239.181870,138.914032 
	C239.074142,139.262405 238.966400,139.610779 238.938232,139.977310 
	C238.938232,139.977310 238.923431,139.897064 238.327057,140.108154 
	C238.173447,140.708725 238.019852,141.309296 237.967987,141.934677 
	C237.967987,141.934677 237.902664,141.852844 237.305801,142.140717 
	C237.122528,143.418610 236.939255,144.696503 236.273773,146.798615 
	C236.222321,152.171494 236.170868,157.544373 235.932709,163.848877 
	C236.071823,179.871582 236.210953,195.894302 236.416809,212.741043 
	C236.595062,214.834381 236.773315,216.927719 236.858200,219.511414 
	C236.858200,219.511414 237.012054,219.986252 236.874680,220.791229 
	C238.122238,223.968689 239.369797,227.146149 240.640869,230.334030 
	C240.640869,230.334030 240.628998,230.360321 240.773361,231.031662 
	C245.524048,238.309219 252.428787,241.774994 260.936249,241.879333 
	C273.907715,242.038391 286.884094,242.038788 299.855713,241.884460 
	C313.667816,241.720123 324.055237,231.231110 324.056061,217.335342 
	C324.056671,207.066696 323.520020,196.799179 323.356598,186.529037 
	C323.158386,174.073181 323.101044,161.615082 323.035919,148.332901 
	C322.079041,140.861160 318.782410,134.863831 311.702728,130.411102 
	C307.778412,129.222153 303.881653,127.128716 299.924805,127.008347 
	C286.283325,126.593376 272.609467,126.560310 258.973419,127.067413 
	C254.932358,127.217697 250.975342,129.627762 247.000412,131.007874 
	C247.000412,131.007874 247.008820,130.988342 246.393402,131.057007 
	C245.814468,131.621445 245.235535,132.185883 244.800079,132.787277 
	C244.800079,132.787277 244.756256,132.645721 244.173050,132.852737 
	C243.656693,133.479187 243.140335,134.105637 242.771835,134.777802 
	C242.771835,134.777802 242.729202,134.629028 242.144882,134.865677 
	C241.703232,135.553406 241.261581,136.241135 240.915665,136.928329 
	C240.915665,136.928329 240.884949,136.837662 240.333725,137.098724 
	C240.064911,137.635361 239.796112,138.171997 239.676285,138.779724 
	C239.676285,138.779724 239.644928,138.617661 239.181870,138.914032 
M347.057495,242.776321 
	C349.127502,254.057739 356.193115,260.489105 366.377533,260.362061 
	C376.347931,260.237640 383.516327,253.182205 385.936066,241.894547 
	C390.263367,241.890198 394.616150,242.167862 398.908722,241.779709 
	C401.648102,241.532013 405.865631,243.949371 406.542786,239.136459 
	C406.657623,238.320114 402.348694,236.881378 399.242432,235.302689 
	C399.242432,221.084732 399.242432,205.723801 399.242432,189.968765 
	C402.764740,189.968765 406.238831,190.160278 409.670013,189.860840 
	C410.810791,189.761276 411.841614,188.401733 412.922699,187.618210 
	C411.803772,186.708450 410.696381,185.020218 409.564240,185.003464 
	C384.940979,184.639084 360.315063,184.419266 335.689209,184.365097 
	C334.410522,184.362274 333.128021,186.078033 331.847290,186.993698 
	C333.080841,187.782364 334.280396,189.183456 335.553802,189.254120 
	C341.197052,189.567261 346.861359,189.546158 352.518250,189.558319 
	C366.142700,189.587631 379.767242,189.567810 393.822021,189.567810 
	C393.822021,205.653473 393.822021,221.038757 393.822021,236.948029 
	C390.462769,236.717484 387.208191,236.494125 383.991791,235.522263 
	C379.380249,225.648300 372.594971,221.528931 362.914459,222.928497 
	C354.621674,224.127426 350.273865,229.940186 346.095245,236.825684 
	C342.775635,236.824081 339.434021,236.602737 336.147583,236.932114 
	C334.883820,237.058777 333.745728,238.439545 332.550385,239.248886 
	C333.719025,240.119385 334.823395,241.614059 336.068481,241.742340 
	C339.683502,242.114807 343.354950,241.939301 347.057495,242.776321 
M217.906738,241.866577 
	C220.547104,241.861313 223.232864,242.139282 225.807953,241.726669 
	C227.025558,241.531586 228.031326,240.014374 229.133087,239.096161 
	C228.060745,238.336105 227.039566,237.028625 225.906067,236.922684 
	C222.967941,236.648026 219.980331,236.902451 216.456558,236.520523 
	C211.742142,225.703720 204.065186,221.009659 193.999344,223.038956 
	C186.252365,224.600754 182.099884,230.230743 178.127228,236.831757 
	C176.187729,236.831757 174.248245,236.831757 171.700653,236.831757 
	C171.700653,208.984619 171.700653,181.656509 171.700653,154.262878 
	C184.942139,154.262878 198.082275,154.257935 211.222397,154.265472 
	C216.052902,154.268250 220.888382,154.420334 225.709610,154.218307 
	C226.672653,154.177948 227.581223,152.837479 228.514893,152.096481 
	C227.713028,151.184647 227.057220,150.021820 226.061829,149.442566 
	C225.302704,149.000809 224.113190,149.276459 223.114929,149.271103 
	C199.295547,149.143509 175.476135,148.981323 151.656845,148.998032 
	C150.250290,148.999008 148.844757,150.447266 147.438751,151.222031 
	C148.935226,152.130798 150.381042,153.704559 151.937714,153.823181 
	C156.535736,154.173477 161.177582,153.948334 166.358124,153.948334 
	C166.358124,177.899567 166.358124,201.359207 166.358124,224.916229 
	C158.974350,224.916229 151.812317,224.786926 144.661667,225.015167 
	C143.051620,225.066559 140.249863,226.187592 140.115036,227.121902 
	C139.638901,230.421234 142.508087,229.925659 144.600754,229.934891 
	C151.916458,229.967148 159.232407,229.947372 166.457809,229.947372 
	C166.457809,232.414139 166.457809,234.476135 166.457809,236.602982 
	C165.458832,236.691437 164.712128,236.568420 164.164673,236.842850 
	C162.739899,237.557114 161.402557,238.445801 160.030334,239.264923 
	C161.526642,240.129120 162.975967,241.624557 164.528000,241.740067 
	C169.333191,242.097733 174.177475,241.930161 179.057205,242.765533 
	C181.183624,254.260132 188.518417,260.759613 198.896088,260.345123 
	C208.754288,259.951385 215.723053,252.891220 217.906738,241.866577 
M243.977707,310.051331 
	C243.977707,307.090942 243.977707,304.130585 243.977707,301.299988 
	C249.481247,299.531799 252.816925,301.122620 254.443405,306.404968 
	C255.069153,308.437225 256.167389,310.365387 257.303192,312.183014 
	C257.942902,313.206696 259.097717,313.908539 260.020508,314.755341 
	C260.546356,314.409210 261.072235,314.063080 261.598083,313.716949 
	C259.575867,309.212372 257.553619,304.707794 255.393036,299.895020 
	C255.762589,299.643188 256.147217,299.341309 256.567108,299.101013 
	C261.496216,296.280304 262.061798,291.619324 260.815521,286.945160 
	C259.542053,282.168884 255.831421,279.676147 250.725327,279.649292 
	C248.397949,279.637024 246.067230,279.704712 243.744019,279.601471 
	C241.230499,279.489746 240.168213,280.480896 240.193817,283.089447 
	C240.285202,292.398804 240.162064,301.710724 240.316940,311.018402 
	C240.335678,312.144440 241.554733,313.250549 242.217499,314.365875 
	C242.804230,313.218353 243.390961,312.070831 243.977707,310.051331 
M299.030731,309.163025 
	C299.197113,301.714233 299.847717,294.226501 299.253204,286.838959 
	C299.059113,284.427490 295.940887,280.829132 293.600037,280.312897 
	C288.925659,279.282196 283.864105,280.007294 279.162598,280.007294 
	C279.162598,291.768524 279.162598,302.998352 279.162598,314.579285 
	C282.021729,314.579285 284.505585,314.503510 286.983215,314.595612 
	C291.621124,314.768005 296.051849,314.522919 299.030731,309.163025 
M335.212036,314.078644 
	C337.991028,314.690430 338.574280,313.640656 337.384033,311.223785 
	C335.577576,307.555664 333.781403,303.882507 331.888519,300.023193 
	C336.777466,297.443298 338.723785,293.499573 337.948273,288.375397 
	C337.322296,284.239288 334.816193,280.952759 330.866669,280.260956 
	C326.468903,279.490631 321.832245,280.084473 317.017639,280.084473 
	C317.017639,290.682861 316.961487,300.797424 317.092468,310.909546 
	C317.107910,312.100677 318.150879,313.278473 318.717499,314.462433 
	C319.400452,313.173370 320.552338,311.926514 320.672974,310.586792 
	C320.962067,307.376129 320.766418,304.121857 320.766418,301.274536 
	C326.616486,299.487213 329.596069,301.505676 331.213715,306.445465 
	C332.027649,308.931122 333.574188,311.176849 335.212036,314.078644 
M125.108871,306.366241 
	C125.111748,308.029358 124.760124,309.801697 125.228355,311.321442 
	C125.611046,312.563599 126.899780,314.340759 127.912338,314.428223 
	C131.532730,314.741089 135.248184,314.754059 138.849640,314.283325 
	C143.341476,313.696228 146.000763,310.783417 146.130127,306.194427 
	C146.303452,300.047394 146.218079,293.890106 146.115616,287.739349 
	C146.049545,283.772339 143.844666,280.676178 140.153549,280.149200 
	C135.350739,279.463501 130.376068,279.981537 125.110046,279.981537 
	C125.110046,288.810638 125.110046,297.105774 125.108871,306.366241 
M211.006348,279.754791 
	C204.656708,281.523682 202.044891,284.737457 201.963715,291.031891 
	C201.907913,295.358612 201.844543,299.690094 201.981171,304.013245 
	C202.175217,310.153656 206.510925,314.480103 212.341049,314.571960 
	C218.122177,314.663086 222.690384,310.360077 222.979233,304.273010 
	C223.176270,300.120972 223.073685,295.952667 223.038727,291.792175 
	C222.972031,283.851074 219.673706,280.326447 211.006348,279.754791 
M163.804352,305.520447 
	C165.420486,311.654602 169.655670,315.050934 175.026230,314.519684 
	C180.618057,313.966553 184.414780,309.914551 184.673843,303.742065 
	C184.875366,298.940430 184.977051,294.091797 184.542267,289.316925 
	C183.979630,283.137848 179.249619,279.319611 173.402451,279.693146 
	C167.766083,280.053223 163.911774,284.127319 163.715363,290.241791 
	C163.560928,295.049683 163.686142,299.866608 163.804352,305.520447 
M435.065796,314.065918 
	C435.504089,309.732483 435.942383,305.399048 436.383545,301.037567 
	C439.367126,300.787964 442.369720,300.801636 445.259491,300.237427 
	C450.548096,299.204834 453.280975,295.362579 453.118652,289.776245 
	C452.974579,284.818146 449.720764,280.514679 444.918030,279.953400 
	C440.867950,279.480133 436.718658,279.855988 432.121094,279.855988 
	C432.121094,290.985870 432.081421,301.745728 432.216797,312.503418 
	C432.225189,313.170380 433.610229,313.820038 435.065796,314.065918 
M393.914215,293.513245 
	C393.914246,298.341980 393.734741,303.180511 393.996429,307.995026 
	C394.112549,310.131500 395.119904,312.219513 395.722717,314.329529 
	C396.256653,312.128662 396.986908,309.952515 397.267639,307.719818 
	C397.532562,305.613037 397.324493,303.446777 397.324493,301.061646 
	C400.547668,300.801483 403.530548,300.769684 406.436462,300.280579 
	C411.728546,299.389893 414.961182,295.337189 414.860382,290.128754 
	C414.758057,284.838013 410.980927,280.322144 405.845276,279.898071 
	C402.071075,279.586456 398.250488,279.836975 393.914276,279.836975 
	C393.914276,284.282349 393.914276,288.401031 393.914215,293.513245 
M364.096832,281.415039 
	C364.090637,291.380463 364.022278,301.346832 364.168365,311.310028 
	C364.184052,312.379364 365.447876,313.430420 366.132721,314.489960 
	C366.729462,313.463928 367.830414,312.444702 367.844452,311.410736 
	C367.975281,301.779205 367.953094,292.144958 367.895874,282.511963 
	C367.879791,279.803406 366.812164,278.623932 364.096832,281.415039 
z"/>
<path fill="#F8F8F8" opacity="1.000000" stroke="none" 
	d="
M179.006592,241.966476 
	C174.177475,241.930161 169.333191,242.097733 164.528000,241.740067 
	C162.975967,241.624557 161.526642,240.129120 160.030334,239.264923 
	C161.402557,238.445801 162.739899,237.557114 164.164673,236.842850 
	C164.712128,236.568420 165.458832,236.691437 166.457809,236.602982 
	C166.457809,234.476135 166.457809,232.414139 166.457809,229.947372 
	C159.232407,229.947372 151.916458,229.967148 144.600754,229.934891 
	C142.508087,229.925659 139.638901,230.421234 140.115036,227.121902 
	C140.249863,226.187592 143.051620,225.066559 144.661667,225.015167 
	C151.812317,224.786926 158.974350,224.916229 166.358124,224.916229 
	C166.358124,201.359207 166.358124,177.899567 166.358124,153.948334 
	C161.177582,153.948334 156.535736,154.173477 151.937714,153.823181 
	C150.381042,153.704559 148.935226,152.130798 147.438751,151.222046 
	C148.844757,150.447266 150.250290,148.999008 151.656845,148.998032 
	C175.476135,148.981323 199.295547,149.143509 223.114929,149.271103 
	C224.113190,149.276459 225.302704,149.000809 226.061829,149.442566 
	C227.057220,150.021820 227.713028,151.184647 228.514893,152.096497 
	C227.581223,152.837479 226.672653,154.177948 225.709610,154.218307 
	C220.888382,154.420334 216.052902,154.268250 211.222397,154.265472 
	C198.082275,154.257935 184.942139,154.262878 171.700653,154.262878 
	C171.700653,181.656509 171.700653,208.984619 171.700653,236.831757 
	C174.248245,236.831757 176.187729,236.831757 178.617432,237.297623 
	C179.073975,239.164490 179.040283,240.565475 179.006592,241.966476 
z"/>
<path fill="#F7D612" opacity="1.000000" stroke="none" 
	d="
M312.109680,130.993973 
	C318.782410,134.863831 322.079041,140.861160 322.930481,149.184875 
	C322.754456,153.942291 322.683899,157.847733 322.405792,161.435211 
	C322.129822,157.803406 322.750397,154.266617 321.773102,151.246933 
	C321.002991,148.867371 318.501465,145.777756 316.347382,145.398544 
	C312.625275,144.743256 314.494232,148.585159 314.026978,150.519348 
	C313.836792,151.306488 313.971649,152.172150 313.780090,153.001923 
	C313.601562,153.001770 313.247406,153.046875 313.175537,152.647842 
	C312.357788,144.861664 308.862335,141.508270 301.573669,141.476013 
	C287.457428,141.413513 273.339508,141.558777 259.224945,141.391327 
	C254.452698,141.334732 250.392410,142.391418 246.954971,145.920319 
	C244.111374,144.472809 241.570526,143.239792 239.021988,141.655029 
	C238.984024,140.834518 238.953720,140.365799 238.923431,139.897064 
	C238.923431,139.897064 238.938232,139.977310 239.161194,139.839539 
	C239.471085,139.340393 239.558014,138.979019 239.644928,138.617661 
	C239.644928,138.617661 239.676285,138.779724 239.942123,138.703125 
	C240.433624,138.030228 240.659271,137.433945 240.884949,136.837662 
	C240.884949,136.837662 240.915665,136.928329 241.180359,136.828644 
	C241.873108,136.028976 242.301163,135.328995 242.729202,134.629028 
	C242.729202,134.629028 242.771835,134.777802 243.040115,134.741028 
	C243.791016,134.018082 244.273636,133.331894 244.756256,132.645721 
	C244.756256,132.645721 244.800079,132.787277 245.049408,132.763702 
	C245.868774,132.156189 246.438797,131.572266 247.008820,130.988342 
	C247.008820,130.988342 247.000412,131.007874 247.372253,130.972290 
	C253.736832,129.955917 259.752197,128.034317 265.717926,128.177628 
	C281.198792,128.549484 296.934021,125.559174 312.109680,130.993973 
z"/>
<path fill="#EDEDED" opacity="1.000000" stroke="none" 
	d="
M383.953583,236.270767 
	C387.208191,236.494125 390.462769,236.717484 393.822021,236.948029 
	C393.822021,221.038757 393.822021,205.653473 393.822021,189.567810 
	C379.767242,189.567810 366.142700,189.587631 352.518250,189.558319 
	C346.861359,189.546158 341.197052,189.567261 335.553802,189.254120 
	C334.280396,189.183456 333.080841,187.782364 331.847290,186.993698 
	C333.128021,186.078033 334.410522,184.362274 335.689209,184.365097 
	C360.315063,184.419266 384.940979,184.639084 409.564240,185.003464 
	C410.696381,185.020218 411.803772,186.708450 412.922699,187.618210 
	C411.841614,188.401733 410.810791,189.761276 409.670013,189.860840 
	C406.238831,190.160278 402.764740,189.968765 399.242432,189.968765 
	C399.242432,205.723801 399.242432,221.084732 399.242432,235.302689 
	C402.348694,236.881378 406.657623,238.320114 406.542786,239.136459 
	C405.865631,243.949371 401.648102,241.532013 398.908722,241.779709 
	C394.616150,242.167862 390.263367,241.890198 385.328491,241.618576 
	C384.465149,239.651993 384.209351,237.961380 383.953583,236.270767 
z"/>
<path fill="#DB8717" opacity="1.000000" stroke="none" 
	d="
M322.613342,161.753189 
	C322.683899,157.847733 322.754456,153.942291 322.903900,149.597382 
	C323.101044,161.615082 323.158386,174.073181 323.356598,186.529037 
	C323.520020,196.799179 324.056671,207.066696 324.056061,217.335342 
	C324.055237,231.231110 313.667816,241.720123 299.855713,241.884460 
	C286.884094,242.038788 273.907715,242.038391 260.936249,241.879333 
	C252.428787,241.774994 245.524048,238.309219 241.054169,230.707993 
	C242.620621,231.462097 243.906235,232.539871 245.394363,233.787430 
	C245.862946,230.524551 246.262589,227.741684 246.770538,225.358337 
	C247.407257,233.883179 250.726242,237.069519 258.785980,237.082275 
	C272.776398,237.104416 286.770477,236.905350 300.755371,237.184021 
	C305.854248,237.285614 309.864624,235.955902 312.996277,232.294571 
	C313.528381,233.282837 314.028320,233.917603 314.528290,234.552368 
	C314.966309,233.758713 315.404327,232.965042 315.842346,232.171356 
	C314.877686,232.106628 313.913055,232.041901 312.969055,231.553619 
	C313.341797,225.081039 313.693878,219.032028 314.313263,213.278015 
	C315.049225,217.977356 315.440430,222.392395 316.045685,226.777893 
	C316.182251,227.767365 316.986969,228.721375 317.681976,229.519379 
	C317.793854,229.647842 319.407959,228.995972 319.546478,228.490677 
	C320.782806,223.980469 322.322296,219.472641 322.808624,214.862442 
	C323.215302,211.007263 322.329834,207.015778 322.262939,202.746704 
	C322.544128,194.183990 322.578949,185.959244 322.668152,177.288757 
	C322.686157,171.813080 322.649750,166.783127 322.613342,161.753189 
z"/>
<path fill="#CBCBCB" opacity="1.000000" stroke="none" 
	d="
M179.031891,242.365997 
	C179.040283,240.565475 179.073975,239.164490 179.063751,237.344635 
	C182.099884,230.230743 186.252365,224.600754 193.999344,223.038956 
	C204.065186,221.009659 211.742142,225.703720 216.684601,237.152618 
	C216.941971,239.190826 216.971298,240.596954 217.000626,242.003067 
	C215.723053,252.891220 208.754288,259.951385 198.896088,260.345123 
	C188.518417,260.759613 181.183624,254.260132 179.031891,242.365997 
M209.522369,251.934158 
	C209.996033,251.251480 210.506393,250.591110 210.937561,249.882584 
	C214.429504,244.144409 213.937027,237.257462 209.694946,232.272842 
	C205.679230,227.554199 198.804306,225.775909 192.891434,227.926392 
	C186.348999,230.305878 182.688141,235.568695 182.862198,242.395935 
	C183.017776,248.497833 186.031891,252.799576 191.442841,255.359283 
	C197.895782,258.411835 203.718277,256.950165 209.522369,251.934158 
z"/>
<path fill="#CBCBCB" opacity="1.000000" stroke="none" 
	d="
M383.972687,235.896515 
	C384.209351,237.961380 384.465149,239.651993 384.864441,241.683899 
	C383.516327,253.182205 376.347931,260.237640 366.377533,260.362061 
	C356.193115,260.489105 349.127502,254.057739 347.014282,241.956635 
	C346.987854,239.734955 347.004700,238.332932 347.021545,236.930923 
	C350.273865,229.940186 354.621674,224.127426 362.914459,222.928497 
	C372.594971,221.528931 379.380249,225.648300 383.972687,235.896515 
M351.435944,246.520828 
	C352.120758,247.842987 352.670410,249.259003 353.512634,250.471832 
	C358.442596,257.571411 368.519409,258.995758 375.597015,253.654465 
	C381.967102,248.847122 383.103302,239.191757 378.060242,232.722336 
	C374.062256,227.593567 366.690033,225.630234 360.519135,228.050842 
	C353.198059,230.922607 350.236694,236.533813 351.435944,246.520828 
z"/>
<path fill="#E9E9E9" opacity="1.000000" stroke="none" 
	d="
M243.977692,310.487305 
	C243.390961,312.070831 242.804230,313.218353 242.217499,314.365875 
	C241.554733,313.250549 240.335678,312.144440 240.316940,311.018402 
	C240.162064,301.710724 240.285202,292.398804 240.193817,283.089447 
	C240.168213,280.480896 241.230499,279.489746 243.744019,279.601471 
	C246.067230,279.704712 248.397949,279.637024 250.725327,279.649292 
	C255.831421,279.676147 259.542053,282.168884 260.815521,286.945160 
	C262.061798,291.619324 261.496216,296.280304 256.567108,299.101013 
	C256.147217,299.341309 255.762589,299.643188 255.393036,299.895020 
	C257.553619,304.707794 259.575867,309.212372 261.598083,313.716949 
	C261.072235,314.063080 260.546356,314.409210 260.020508,314.755341 
	C259.097717,313.908539 257.942902,313.206696 257.303192,312.183014 
	C256.167389,310.365387 255.069153,308.437225 254.443405,306.404968 
	C252.816925,301.122620 249.481247,299.531799 243.977707,301.299988 
	C243.977707,304.130585 243.977707,307.090942 243.977692,310.487305 
M250.102859,297.034454 
	C255.406662,296.375244 258.284760,293.514771 257.796967,289.387482 
	C257.184265,284.203125 253.075989,282.418274 244.180206,283.576263 
	C244.180206,287.926849 244.180206,292.300781 244.180206,297.037781 
	C245.999069,297.037781 247.607651,297.037781 250.102859,297.034454 
z"/>
<path fill="#EDEDED" opacity="1.000000" stroke="none" 
	d="
M298.903107,309.539764 
	C296.051849,314.522919 291.621124,314.768005 286.983215,314.595612 
	C284.505585,314.503510 282.021729,314.579285 279.162598,314.579285 
	C279.162598,302.998352 279.162598,291.768524 279.162598,280.007294 
	C283.864105,280.007294 288.925659,279.282196 293.600037,280.312897 
	C295.940887,280.829132 299.059113,284.427490 299.253204,286.838959 
	C299.847717,294.226501 299.197113,301.714233 298.903107,309.539764 
M282.194214,298.489258 
	C282.194214,302.586121 282.194214,306.682983 282.194214,310.976471 
	C284.972504,310.976471 287.126831,311.003998 289.280182,310.971039 
	C294.571564,310.890045 295.979431,309.465027 296.038147,304.111969 
	C296.071014,301.118103 296.045502,298.123596 296.045563,295.129364 
	C296.045776,283.016632 295.866364,282.835480 283.881073,283.117889 
	C283.428864,283.128571 282.981964,283.364075 282.194214,283.593201 
	C282.194214,288.242371 282.194214,292.869110 282.194214,298.489258 
z"/>
<path fill="#E9E9E9" opacity="1.000000" stroke="none" 
	d="
M335.000732,313.804871 
	C333.574188,311.176849 332.027649,308.931122 331.213715,306.445465 
	C329.596069,301.505676 326.616486,299.487213 320.766418,301.274536 
	C320.766418,304.121857 320.962067,307.376129 320.672974,310.586792 
	C320.552338,311.926514 319.400452,313.173370 318.717499,314.462433 
	C318.150879,313.278473 317.107910,312.100677 317.092468,310.909546 
	C316.961487,300.797424 317.017639,290.682861 317.017639,280.084473 
	C321.832245,280.084473 326.468903,279.490631 330.866669,280.260956 
	C334.816193,280.952759 337.322296,284.239288 337.948273,288.375397 
	C338.723785,293.499573 336.777466,297.443298 331.888519,300.023193 
	C333.781403,303.882507 335.577576,307.555664 337.384033,311.223785 
	C338.574280,313.640656 337.991028,314.690430 335.000732,313.804871 
M324.358337,283.107727 
	C322.145721,282.882812 320.501282,283.081818 320.694458,286.097076 
	C320.922852,289.661987 320.748108,293.252747 320.748108,297.225006 
	C324.331543,296.982422 327.436676,297.314728 330.161316,296.449310 
	C333.503052,295.387848 334.924316,292.378723 334.252411,288.852234 
	C333.303925,283.874023 329.601715,282.909943 324.358337,283.107727 
z"/>
<path fill="#E9E9E9" opacity="1.000000" stroke="none" 
	d="
M125.109459,305.883606 
	C125.110046,297.105774 125.110046,288.810638 125.110046,279.981537 
	C130.376068,279.981537 135.350739,279.463501 140.153549,280.149200 
	C143.844666,280.676178 146.049545,283.772339 146.115616,287.739349 
	C146.218079,293.890106 146.303452,300.047394 146.130127,306.194427 
	C146.000763,310.783417 143.341476,313.696228 138.849640,314.283325 
	C135.248184,314.754059 131.532730,314.741089 127.912338,314.428223 
	C126.899780,314.340759 125.611046,312.563599 125.228355,311.321442 
	C124.760124,309.801697 125.111748,308.029358 125.109459,305.883606 
M131.566406,283.105438 
	C130.673996,283.733215 129.017715,284.345520 129.004669,284.991058 
	C128.831604,293.557922 128.889175,302.129425 128.889175,310.968964 
	C131.385941,310.968964 133.350266,310.982910 135.314346,310.966339 
	C141.021149,310.918152 142.701187,309.283478 142.779526,303.609741 
	C142.827667,300.124084 142.787537,296.637238 142.786835,293.150909 
	C142.784988,283.861786 142.013763,283.109344 131.566406,283.105438 
z"/>
<path fill="#E7E7E7" opacity="1.000000" stroke="none" 
	d="
M211.380341,279.703369 
	C219.673706,280.326447 222.972031,283.851074 223.038727,291.792175 
	C223.073685,295.952667 223.176270,300.120972 222.979233,304.273010 
	C222.690384,310.360077 218.122177,314.663086 212.341049,314.571960 
	C206.510925,314.480103 202.175217,310.153656 201.981171,304.013245 
	C201.844543,299.690094 201.907913,295.358612 201.963715,291.031891 
	C202.044891,284.737457 204.656708,281.523682 211.380341,279.703369 
M205.579453,291.767822 
	C205.586731,295.908264 205.426971,300.057617 205.647232,304.186707 
	C205.877518,308.503510 208.703674,311.151367 212.640594,310.921356 
	C216.685974,310.684967 219.102402,308.482605 219.272842,304.351135 
	C219.450195,300.051910 219.484604,295.740448 219.396454,291.438141 
	C219.291077,286.294373 216.808182,283.304901 212.766388,283.134308 
	C208.711670,282.963165 206.356705,285.490173 205.579453,291.767822 
z"/>
<path fill="#EDEDED" opacity="1.000000" stroke="none" 
	d="
M163.745743,305.099976 
	C163.686142,299.866608 163.560928,295.049683 163.715363,290.241791 
	C163.911774,284.127319 167.766083,280.053223 173.402451,279.693146 
	C179.249619,279.319611 183.979630,283.137848 184.542267,289.316925 
	C184.977051,294.091797 184.875366,298.940430 184.673843,303.742065 
	C184.414780,309.914551 180.618057,313.966553 175.026230,314.519684 
	C169.655670,315.050934 165.420486,311.654602 163.745743,305.099976 
M167.670242,287.661255 
	C167.491608,293.285309 167.027328,298.919769 167.231171,304.529938 
	C167.375626,308.505646 169.939056,310.860291 174.094772,310.955994 
	C177.968994,311.045258 180.807495,308.282288 180.989624,304.017059 
	C181.166870,299.865967 180.958313,295.699738 181.061874,291.543732 
	C181.153076,287.884338 180.129486,285.017883 176.406601,283.642212 
	C172.618637,282.242462 170.000931,283.772217 167.670242,287.661255 
z"/>
<path fill="#E7E7E7" opacity="1.000000" stroke="none" 
	d="
M434.710297,314.271851 
	C433.610229,313.820038 432.225189,313.170380 432.216797,312.503418 
	C432.081421,301.745728 432.121094,290.985870 432.121094,279.855988 
	C436.718658,279.855988 440.867950,279.480133 444.918030,279.953400 
	C449.720764,280.514679 452.974579,284.818146 453.118652,289.776245 
	C453.280975,295.362579 450.548096,299.204834 445.259491,300.237427 
	C442.369720,300.801636 439.367126,300.787964 436.383545,301.037567 
	C435.942383,305.399048 435.504089,309.732483 434.710297,314.271851 
M435.887878,291.462097 
	C435.887878,293.228943 435.887878,294.995789 435.887878,296.937073 
	C440.780823,296.894684 445.807159,298.454773 448.476807,293.658234 
	C449.535309,291.756409 449.426697,288.170013 448.293365,286.287354 
	C445.478485,281.611237 440.566223,283.249054 435.887909,283.295074 
	C435.887909,285.921204 435.887909,288.212555 435.887878,291.462097 
z"/>
<path fill="#F8F8F8" opacity="1.000000" stroke="none" 
	d="
M393.914246,293.016479 
	C393.914276,288.401031 393.914276,284.282349 393.914276,279.836975 
	C398.250488,279.836975 402.071075,279.586456 405.845276,279.898071 
	C410.980927,280.322144 414.758057,284.838013 414.860382,290.128754 
	C414.961182,295.337189 411.728546,299.389893 406.436462,300.280579 
	C403.530548,300.769684 400.547668,300.801483 397.324493,301.061646 
	C397.324493,303.446777 397.532562,305.613037 397.267639,307.719818 
	C396.986908,309.952515 396.256653,312.128662 395.722717,314.329529 
	C395.119904,312.219513 394.112549,310.131500 393.996429,307.995026 
	C393.734741,303.180511 393.914246,298.341980 393.914246,293.016479 
M397.274841,287.693115 
	C397.274841,290.757019 397.274841,293.820923 397.274841,297.025665 
	C400.349304,297.025665 402.682526,297.212372 404.974884,296.985840 
	C409.414673,296.547119 412.004517,292.798157 411.048859,288.496216 
	C410.156708,284.480225 406.983795,283.007385 400.705383,282.966980 
	C397.658203,282.947357 396.911957,284.139832 397.274841,287.693115 
z"/>
<path fill="#FA9F0A" opacity="1.000000" stroke="none" 
	d="
M246.662231,224.958817 
	C246.262589,227.741684 245.862946,230.524551 245.394363,233.787430 
	C243.906235,232.539871 242.620621,231.462097 240.981995,230.372314 
	C240.628998,230.360321 240.640869,230.334030 240.717865,229.944733 
	C239.533936,226.365707 238.272995,223.175980 237.012054,219.986252 
	C237.012054,219.986252 236.858200,219.511414 237.183289,219.001953 
	C237.334625,216.237976 237.160858,213.983475 236.994354,211.291382 
	C237.029160,207.897049 237.056702,204.940292 237.484009,201.989349 
	C240.219635,202.325775 242.555511,202.656372 244.923569,203.378265 
	C244.968018,205.879486 244.980286,207.989441 245.027039,210.384918 
	C245.404556,211.097458 245.747574,211.524445 246.047318,211.971207 
	C246.004044,211.990982 246.073029,211.925400 246.080078,212.144592 
	C246.174927,212.665222 246.362335,212.879654 246.723907,213.461121 
	C246.753067,217.596359 246.707657,221.277588 246.662231,224.958817 
z"/>
<path fill="#F6BE1A" opacity="1.000000" stroke="none" 
	d="
M237.084229,201.983521 
	C237.056702,204.940292 237.029160,207.897049 236.833893,211.335693 
	C236.666153,211.817566 236.350067,211.917007 236.350067,211.917007 
	C236.210953,195.894302 236.071823,179.871582 236.333801,163.211975 
	C238.628586,159.158569 241.918152,160.111816 244.904480,160.447998 
	C244.932755,166.620087 244.917435,172.323532 244.489136,178.018143 
	C241.289261,178.108643 238.194077,177.719513 238.004974,181.890045 
	C237.701263,188.588028 237.391464,195.285706 237.084229,201.983521 
z"/>
<path fill="#F9C70F" opacity="1.000000" stroke="none" 
	d="
M244.860886,159.979355 
	C241.918152,160.111816 238.628586,159.158569 236.427139,162.746155 
	C236.170868,157.544373 236.222321,152.171494 236.803925,146.241470 
	C237.523621,144.407166 237.713150,143.130005 237.902679,141.852844 
	C237.902664,141.852844 237.967987,141.934677 238.207001,141.968094 
	C238.640549,142.003265 238.835098,142.005035 239.029663,142.006790 
	C241.570526,143.239792 244.111374,144.472809 246.903152,146.253845 
	C246.753952,147.854782 246.353851,148.907684 245.669189,150.257553 
	C245.210068,153.696121 245.035477,156.837738 244.860886,159.979355 
z"/>
<path fill="#DCDCDC" opacity="1.000000" stroke="none" 
	d="
M364.163544,281.010529 
	C366.812164,278.623932 367.879791,279.803406 367.895874,282.511963 
	C367.953094,292.144958 367.975281,301.779205 367.844452,311.410736 
	C367.830414,312.444702 366.729462,313.463928 366.132721,314.489960 
	C365.447876,313.430420 364.184052,312.379364 364.168365,311.310028 
	C364.022278,301.346832 364.090637,291.380463 364.163544,281.010529 
z"/>
<path fill="#EAD636" opacity="1.000000" stroke="none" 
	d="
M311.906189,130.702545 
	C296.934021,125.559174 281.198792,128.549484 265.717926,128.177628 
	C259.752197,128.034317 253.736832,129.955917 247.361954,130.969513 
	C250.975342,129.627762 254.932358,127.217697 258.973419,127.067413 
	C272.609467,126.560310 286.283325,126.593376 299.924805,127.008347 
	C303.881653,127.128716 307.778412,129.222153 311.906189,130.702545 
z"/>
<path fill="#F8F8F8" opacity="1.000000" stroke="none" 
	d="
M346.558411,236.878296 
	C347.004700,238.332932 346.987854,239.734955 346.987671,241.557861 
	C343.354950,241.939301 339.683502,242.114807 336.068481,241.742340 
	C334.823395,241.614059 333.719025,240.119385 332.550385,239.248886 
	C333.745728,238.439545 334.883820,237.058777 336.147583,236.932114 
	C339.434021,236.602737 342.775635,236.824081 346.558411,236.878296 
z"/>
<path fill="#F8F8F8" opacity="1.000000" stroke="none" 
	d="
M217.453674,241.934814 
	C216.971298,240.596954 216.941971,239.190826 216.962555,237.365204 
	C219.980331,236.902451 222.967941,236.648026 225.906067,236.922684 
	C227.039566,237.028625 228.060745,238.336105 229.133087,239.096161 
	C228.031326,240.014374 227.025558,241.531586 225.807953,241.726669 
	C223.232864,242.139282 220.547104,241.861313 217.453674,241.934814 
z"/>
<path fill="#DB8717" opacity="1.000000" stroke="none" 
	d="
M236.943359,220.388733 
	C238.272995,223.175980 239.533936,226.365707 240.706116,229.939529 
	C239.369797,227.146149 238.122238,223.968689 236.943359,220.388733 
z"/>
<path fill="#DB8717" opacity="1.000000" stroke="none" 
	d="
M236.383438,212.329025 
	C236.350067,211.917007 236.666153,211.817566 236.826630,211.773254 
	C237.160858,213.983475 237.334625,216.237976 237.229980,218.756775 
	C236.773315,216.927719 236.595062,214.834381 236.383438,212.329025 
z"/>
<path fill="#EAD636" opacity="1.000000" stroke="none" 
	d="
M237.604248,141.996780 
	C237.713150,143.130005 237.523621,144.407166 237.045044,145.829361 
	C236.939255,144.696503 237.122528,143.418610 237.604248,141.996780 
z"/>
<path fill="#EAD636" opacity="1.000000" stroke="none" 
	d="
M242.437042,134.747345 
	C242.301163,135.328995 241.873108,136.028976 241.132507,136.828888 
	C241.261581,136.241135 241.703232,135.553406 242.437042,134.747345 
z"/>
<path fill="#EAD636" opacity="1.000000" stroke="none" 
	d="
M244.464661,132.749237 
	C244.273636,133.331894 243.791016,134.018082 242.966187,134.718170 
	C243.140335,134.105637 243.656693,133.479187 244.464661,132.749237 
z"/>
<path fill="#EAD636" opacity="1.000000" stroke="none" 
	d="
M246.701111,131.022675 
	C246.438797,131.572266 245.868774,132.156189 244.977661,132.745209 
	C245.235535,132.185883 245.814468,131.621445 246.701111,131.022675 
z"/>
<path fill="#EAD636" opacity="1.000000" stroke="none" 
	d="
M239.021988,141.655029 
	C238.835098,142.005035 238.640549,142.003265 238.156128,141.955688 
	C238.019852,141.309296 238.173447,140.708725 238.625244,140.002609 
	C238.953720,140.365799 238.984024,140.834518 239.021988,141.655029 
z"/>
<path fill="#EAD636" opacity="1.000000" stroke="none" 
	d="
M240.609329,136.968201 
	C240.659271,137.433945 240.433624,138.030228 239.867645,138.667572 
	C239.796112,138.171997 240.064911,137.635361 240.609329,136.968201 
z"/>
<path fill="#EAD636" opacity="1.000000" stroke="none" 
	d="
M239.413391,138.765839 
	C239.558014,138.979019 239.471085,139.340393 239.121414,139.830460 
	C238.966400,139.610779 239.074142,139.262405 239.413391,138.765839 
z"/>
<path fill="#050403" opacity="1.000000" stroke="none" 
	d="
M245.953735,149.960602 
	C246.353851,148.907684 246.753952,147.854782 247.205887,146.468338 
	C250.392410,142.391418 254.452698,141.334732 259.224945,141.391327 
	C273.339508,141.558777 287.457428,141.413513 301.573669,141.476013 
	C308.862335,141.508270 312.357788,144.861664 313.081818,153.101074 
	C313.059204,171.884369 313.031250,189.815506 313.100891,207.746262 
	C313.107666,209.493042 313.716553,211.237488 314.045959,212.983017 
	C313.693878,219.032028 313.341797,225.081039 312.998718,231.556335 
	C313.007751,231.982605 312.964142,231.941071 312.964142,231.941071 
	C309.864624,235.955902 305.854248,237.285614 300.755371,237.184021 
	C286.770477,236.905350 272.776398,237.104416 258.785980,237.082275 
	C250.726242,237.069519 247.407257,233.883179 246.770554,225.358337 
	C246.707657,221.277588 246.753067,217.596359 246.796631,213.225983 
	C246.670883,212.195312 246.430298,211.991501 246.073029,211.925400 
	C246.073029,211.925400 246.004044,211.990982 246.063690,211.629013 
	C246.046066,210.819183 245.968781,210.371323 245.945251,209.462387 
	C245.983917,189.321075 245.968826,169.640839 245.953735,149.960602 
M281.959381,204.479202 
	C285.154327,198.337097 291.283752,193.481155 289.830750,185.340347 
	C292.769196,185.340347 295.262421,185.291794 297.753052,185.351852 
	C301.378235,185.439285 304.639557,184.578384 305.602264,180.682999 
	C306.619476,176.567245 303.552246,174.749847 300.409485,173.282974 
	C294.581360,170.562759 288.735168,167.881226 282.669952,165.078934 
	C288.892090,160.455795 290.249054,157.348206 287.976318,153.591568 
	C285.550751,149.582260 279.431641,147.868835 275.194305,150.543686 
	C273.592072,151.555115 271.517761,154.704605 272.007050,155.609116 
	C273.554230,158.469208 275.270050,155.839111 277.169983,155.073196 
	C278.826111,154.405548 281.140961,155.371979 283.164764,155.616379 
	C282.433899,157.138397 281.844238,158.751526 280.936127,160.159195 
	C279.826172,161.879745 277.232941,163.655899 277.484009,164.995056 
	C277.825897,166.818909 279.976105,168.768509 281.833710,169.755051 
	C287.102905,172.553391 292.636749,174.849701 298.017731,177.444580 
	C298.986877,177.911957 299.724579,178.859329 301.601074,180.471909 
	C291.531982,181.284988 282.987732,182.534149 276.988068,176.567352 
	C273.587006,178.335419 271.171570,180.235825 268.471130,180.820923 
	C265.534088,181.457336 262.332214,180.871765 259.245819,180.818985 
	C259.137878,180.122604 259.029938,179.426208 258.921997,178.729828 
	C263.744080,176.360138 268.617981,174.086884 273.348694,171.547012 
	C274.414398,170.974869 274.980865,169.472870 275.777130,168.398926 
	C274.340057,168.103699 272.639191,167.164337 271.512115,167.625992 
	C266.910767,169.510712 262.238312,171.446091 258.102722,174.145248 
	C256.162598,175.411499 253.983978,178.820724 254.449127,180.593430 
	C254.965790,182.562515 258.180450,184.352875 260.576538,185.148041 
	C262.887756,185.915054 265.652924,185.314056 269.157745,185.314056 
	C264.788757,192.275787 261.011566,198.294464 256.911285,204.828018 
	C259.202606,206.337219 261.363556,207.803055 263.565918,209.203720 
	C272.841461,215.102707 275.709473,214.438690 281.959381,204.479202 
z"/>
<path fill="#F4A20B" opacity="1.000000" stroke="none" 
	d="
M314.313263,213.278015 
	C313.716553,211.237488 313.107666,209.493042 313.100891,207.746262 
	C313.031250,189.815506 313.059204,171.884369 313.153687,153.500107 
	C313.247406,153.046875 313.601562,153.001770 313.788818,153.470062 
	C313.998077,159.959198 314.020111,165.980057 314.026398,172.469299 
	C314.010651,181.198715 314.010651,189.459732 314.010651,198.269379 
	C317.150391,197.283310 319.101990,196.670395 322.016602,195.755020 
	C322.016602,198.646210 322.016602,200.865433 322.016602,203.084656 
	C322.329834,207.015778 323.215302,211.007263 322.808624,214.862442 
	C322.322296,219.472641 320.782806,223.980469 319.546478,228.490677 
	C319.407959,228.995972 317.793854,229.647842 317.681976,229.519379 
	C316.986969,228.721375 316.182251,227.767365 316.045685,226.777893 
	C315.440430,222.392395 315.049225,217.977356 314.313263,213.278015 
z"/>
<path fill="#F9C70F" opacity="1.000000" stroke="none" 
	d="
M314.042145,172.000900 
	C314.020111,165.980057 313.998077,159.959198 313.967346,153.470215 
	C313.971649,152.172150 313.836792,151.306488 314.026978,150.519348 
	C314.494232,148.585159 312.625275,144.743256 316.347382,145.398544 
	C318.501465,145.777756 321.002991,148.867371 321.773102,151.246933 
	C322.750397,154.266617 322.129822,157.803406 322.405823,161.435211 
	C322.649750,166.783127 322.686157,171.813080 322.465393,177.007660 
	C321.651703,170.492004 321.071716,170.124710 314.042145,172.000900 
z"/>
<path fill="#FBB50C" opacity="1.000000" stroke="none" 
	d="
M314.026398,172.469299 
	C321.071716,170.124710 321.651703,170.492004 322.410980,177.453400 
	C322.578949,185.959244 322.544128,194.183990 322.262939,202.746704 
	C322.016602,200.865433 322.016602,198.646210 322.016602,195.755020 
	C319.101990,196.670395 317.150391,197.283310 314.010651,198.269379 
	C314.010651,189.459732 314.010651,181.198715 314.026398,172.469299 
z"/>
<path fill="#F4A20B" opacity="1.000000" stroke="none" 
	d="
M312.978088,231.979889 
	C313.913055,232.041901 314.877686,232.106628 315.842346,232.171356 
	C315.404327,232.965042 314.966309,233.758713 314.528290,234.552368 
	C314.028320,233.917603 313.528381,233.282837 312.996277,232.294571 
	C312.964142,231.941071 313.007751,231.982605 312.978088,231.979889 
z"/>
<path fill="#040404" opacity="1.000000" stroke="none" 
	d="
M209.253632,252.198578 
	C203.718277,256.950165 197.895782,258.411835 191.442841,255.359283 
	C186.031891,252.799576 183.017776,248.497833 182.862198,242.395935 
	C182.688141,235.568695 186.348999,230.305878 192.891434,227.926392 
	C198.804306,225.775909 205.679230,227.554199 209.694946,232.272842 
	C213.937027,237.257462 214.429504,244.144409 210.937561,249.882584 
	C210.506393,250.591110 209.996033,251.251480 209.253632,252.198578 
z"/>
<path fill="#040404" opacity="1.000000" stroke="none" 
	d="
M351.309570,246.130707 
	C350.236694,236.533813 353.198059,230.922607 360.519135,228.050842 
	C366.690033,225.630234 374.062256,227.593567 378.060242,232.722336 
	C383.103302,239.191757 381.967102,248.847122 375.597015,253.654465 
	C368.519409,258.995758 358.442596,257.571411 353.512634,250.471832 
	C352.670410,249.259003 352.120758,247.842987 351.309570,246.130707 
z"/>
<path fill="#060606" opacity="1.000000" stroke="none" 
	d="
M249.659546,297.036133 
	C247.607651,297.037781 245.999069,297.037781 244.180206,297.037781 
	C244.180206,292.300781 244.180206,287.926849 244.180206,283.576263 
	C253.075989,282.418274 257.184265,284.203125 257.796967,289.387482 
	C258.284760,293.514771 255.406662,296.375244 249.659546,297.036133 
z"/>
<path fill="#060606" opacity="1.000000" stroke="none" 
	d="
M282.194214,297.992554 
	C282.194214,292.869110 282.194214,288.242371 282.194214,283.593201 
	C282.981964,283.364075 283.428864,283.128571 283.881073,283.117889 
	C295.866364,282.835480 296.045776,283.016632 296.045563,295.129364 
	C296.045502,298.123596 296.071014,301.118103 296.038147,304.111969 
	C295.979431,309.465027 294.571564,310.890045 289.280182,310.971039 
	C287.126831,311.003998 284.972504,310.976471 282.194214,310.976471 
	C282.194214,306.682983 282.194214,302.586121 282.194214,297.992554 
z"/>
<path fill="#060606" opacity="1.000000" stroke="none" 
	d="
M324.803894,283.107574 
	C329.601715,282.909943 333.303925,283.874023 334.252411,288.852234 
	C334.924316,292.378723 333.503052,295.387848 330.161316,296.449310 
	C327.436676,297.314728 324.331543,296.982422 320.748108,297.225006 
	C320.748108,293.252747 320.922852,289.661987 320.694458,286.097076 
	C320.501282,283.081818 322.145721,282.882812 324.803894,283.107574 
z"/>
<path fill="#060606" opacity="1.000000" stroke="none" 
	d="
M132.028351,283.105164 
	C142.013763,283.109344 142.784988,283.861786 142.786835,293.150909 
	C142.787537,296.637238 142.827667,300.124084 142.779526,303.609741 
	C142.701187,309.283478 141.021149,310.918152 135.314346,310.966339 
	C133.350266,310.982910 131.385941,310.968964 128.889175,310.968964 
	C128.889175,302.129425 128.831604,293.557922 129.004669,284.991058 
	C129.017715,284.345520 130.673996,283.733215 132.028351,283.105164 
z"/>
<path fill="#040404" opacity="1.000000" stroke="none" 
	d="
M205.580307,291.306152 
	C206.356705,285.490173 208.711670,282.963165 212.766388,283.134308 
	C216.808182,283.304901 219.291077,286.294373 219.396454,291.438141 
	C219.484604,295.740448 219.450195,300.051910 219.272842,304.351135 
	C219.102402,308.482605 216.685974,310.684967 212.640594,310.921356 
	C208.703674,311.151367 205.877518,308.503510 205.647232,304.186707 
	C205.426971,300.057617 205.586731,295.908264 205.580307,291.306152 
z"/>
<path fill="#060606" opacity="1.000000" stroke="none" 
	d="
M167.827209,287.281281 
	C170.000931,283.772217 172.618637,282.242462 176.406601,283.642212 
	C180.129486,285.017883 181.153076,287.884338 181.061874,291.543732 
	C180.958313,295.699738 181.166870,299.865967 180.989624,304.017059 
	C180.807495,308.282288 177.968994,311.045258 174.094772,310.955994 
	C169.939056,310.860291 167.375626,308.505646 167.231171,304.529938 
	C167.027328,298.919769 167.491608,293.285309 167.827209,287.281281 
z"/>
<path fill="#060606" opacity="1.000000" stroke="none" 
	d="
M435.887878,290.983002 
	C435.887909,288.212555 435.887909,285.921204 435.887909,283.295074 
	C440.566223,283.249054 445.478485,281.611237 448.293365,286.287354 
	C449.426697,288.170013 449.535309,291.756409 448.476807,293.658234 
	C445.807159,298.454773 440.780823,296.894684 435.887878,296.937073 
	C435.887878,294.995789 435.887878,293.228943 435.887878,290.983002 
z"/>
<path fill="#0D0D0D" opacity="1.000000" stroke="none" 
	d="
M397.282440,287.232422 
	C396.911957,284.139832 397.658203,282.947357 400.705383,282.966980 
	C406.983795,283.007385 410.156708,284.480225 411.048859,288.496216 
	C412.004517,292.798157 409.414673,296.547119 404.974884,296.985840 
	C402.682526,297.212372 400.349304,297.025665 397.274841,297.025665 
	C397.274841,293.820923 397.274841,290.757019 397.282440,287.232422 
z"/>
<path fill="#FBB50C" opacity="1.000000" stroke="none" 
	d="
M237.483994,201.989349 
	C237.391464,195.285706 237.701263,188.588028 238.004974,181.890045 
	C238.194077,177.719513 241.289261,178.108643 244.514542,178.483475 
	C244.932404,186.967438 244.911880,194.977203 244.891373,202.986984 
	C242.555511,202.656372 240.219635,202.325775 237.483994,201.989349 
z"/>
<path fill="#E5B94A" opacity="1.000000" stroke="none" 
	d="
M244.923569,203.378265 
	C244.911880,194.977203 244.932404,186.967438 244.927521,178.492325 
	C244.917435,172.323532 244.932755,166.620087 244.904480,160.447998 
	C245.035477,156.837738 245.210068,153.696121 245.669189,150.257553 
	C245.968826,169.640839 245.983917,189.321075 245.720856,209.508499 
	C245.442703,210.015686 244.992538,210.099380 244.992538,210.099380 
	C244.980286,207.989441 244.968018,205.879486 244.923569,203.378265 
z"/>
<path fill="#DB8717" opacity="1.000000" stroke="none" 
	d="
M245.027039,210.384918 
	C244.992538,210.099380 245.442703,210.015686 245.667099,209.969574 
	C245.968781,210.371323 246.046066,210.819183 246.106964,211.609238 
	C245.747574,211.524445 245.404556,211.097458 245.027039,210.384918 
z"/>
<path fill="#DB8717" opacity="1.000000" stroke="none" 
	d="
M246.080078,212.144592 
	C246.430298,211.991501 246.670883,212.195312 246.722076,212.771973 
	C246.362335,212.879654 246.174927,212.665222 246.080078,212.144592 
z"/>
<path fill="#F0F0F0" opacity="1.000000" stroke="none" 
	d="
M281.758728,204.779968 
	C275.709473,214.438690 272.841461,215.102707 263.565918,209.203720 
	C261.363556,207.803055 259.202606,206.337219 256.911285,204.828018 
	C261.011566,198.294464 264.788757,192.275787 269.157745,185.314056 
	C265.652924,185.314056 262.887756,185.915054 260.576538,185.148041 
	C258.180450,184.352875 254.965790,182.562515 254.449127,180.593430 
	C253.983978,178.820724 256.162598,175.411499 258.102722,174.145248 
	C262.238312,171.446091 266.910767,169.510712 271.512115,167.625992 
	C272.639191,167.164337 274.340057,168.103699 275.777130,168.398926 
	C274.980865,169.472870 274.414398,170.974869 273.348694,171.547012 
	C268.617981,174.086884 263.744080,176.360138 258.921997,178.729828 
	C259.029938,179.426208 259.137878,180.122604 259.245819,180.818985 
	C262.332214,180.871765 265.534088,181.457336 268.471130,180.820923 
	C271.171570,180.235825 273.587006,178.335419 276.988068,176.567352 
	C282.987732,182.534149 291.531982,181.284988 301.601074,180.471909 
	C299.724579,178.859329 298.986877,177.911957 298.017731,177.444580 
	C292.636749,174.849701 287.102905,172.553391 281.833710,169.755051 
	C279.976105,168.768509 277.825897,166.818909 277.484009,164.995056 
	C277.232941,163.655899 279.826172,161.879745 280.936127,160.159195 
	C281.844238,158.751526 282.433899,157.138397 283.164764,155.616379 
	C281.140961,155.371979 278.826111,154.405548 277.169983,155.073196 
	C275.270050,155.839111 273.554230,158.469208 272.007050,155.609116 
	C271.517761,154.704605 273.592072,151.555115 275.194305,150.543686 
	C279.431641,147.868835 285.550751,149.582260 287.976318,153.591568 
	C290.249054,157.348206 288.892090,160.455795 282.669952,165.078934 
	C288.735168,167.881226 294.581360,170.562759 300.409485,173.282974 
	C303.552246,174.749847 306.619476,176.567245 305.602264,180.682999 
	C304.639557,184.578384 301.378235,185.439285 297.753052,185.351852 
	C295.262421,185.291794 292.769196,185.340347 289.830750,185.340347 
	C291.283752,193.481155 285.154327,198.337097 281.758728,204.779968 
M269.727783,191.209381 
	C267.101593,195.350296 264.475372,199.491196 261.724365,203.828918 
	C264.264801,205.458435 266.322876,207.493988 268.745087,208.119492 
	C270.918182,208.680664 274.607574,208.580063 275.687073,207.225067 
	C279.481415,202.462387 282.651703,197.151154 285.617584,191.803375 
	C286.938080,189.422440 286.954193,186.403229 283.395050,185.417358 
	C277.521820,183.790558 273.282562,185.529053 269.727783,191.209381 
z"/>
<path fill="#060606" opacity="1.000000" stroke="none" 
	d="
M269.907074,190.889175 
	C273.282562,185.529053 277.521820,183.790558 283.395050,185.417358 
	C286.954193,186.403229 286.938080,189.422440 285.617584,191.803375 
	C282.651703,197.151154 279.481415,202.462387 275.687073,207.225067 
	C274.607574,208.580063 270.918182,208.680664 268.745087,208.119492 
	C266.322876,207.493988 264.264801,205.458435 261.724365,203.828918 
	C264.475372,199.491196 267.101593,195.350296 269.907074,190.889175 
z"/>
</svg>