<svg xmlns="http://www.w3.org/2000/svg" viewBox="0 0 1080 1080">
  <defs>
    <style>
      .cls-1 {
        fill: #fff;
        stroke-width: 0px;
      }

      .cls-1, .cls-2, .cls-3 {
        fill-rule: evenodd;
      }

      .cls-2 {
        fill: #ffd400;
      }

      .cls-2, .cls-3 {
        stroke: #231f20;
        stroke-linecap: round;
        stroke-linejoin: round;
        stroke-width: 16.96px;
      }

      .cls-3 {
        fill: none;
      }
    </style>
  </defs>
  <g id="Layer_2" data-name="Layer 2">
    <g>
      <path class="cls-3" d="M851.83,195.18H228.17c-18.21,0-32.99,14.77-32.99,32.99v146.69c0,18.21,14.77,32.99,32.99,32.99h623.66c18.21,0,32.99-14.77,32.99-32.99v-146.69c0-18.21-14.77-32.99-32.99-32.99Z"/>
      <line class="cls-3" x1="195.18" y1="301.82" x2="71.91" y2="301.82"/>
      <circle class="cls-3" cx="301.82" cy="605.83" r="96.6"/>
      <circle class="cls-3" cx="778.18" cy="605.83" r="96.6"/>
      <line class="cls-3" x1="884.82" y1="301.82" x2="1008.09" y2="301.82"/>
      <line class="cls-3" x1="407.85" y1="605.83" x2="672.15" y2="605.83"/>
      <g>
        <path class="cls-2" d="M689.82,195.18h-299.64c-36.42,0-65.98,29.56-65.98,65.98v282.64c0,36.42,29.56,65.98,65.98,65.98h299.64c36.42,0,65.98-29.56,65.98-65.98v-282.64c0-36.42-29.56-65.98-65.98-65.98Z"/>
        <g>
          <path class="cls-1" d="M463.21,485.45l50.59-50.59c1.98-1.98,4.7-3.09,7.52-3.09h57.41c5.87,0,10.64,4.76,10.64,10.64s-4.76,10.64-10.64,10.64h-54.32l-47.5,47.5c-4.15,4.15-4.15,10.88,0,15.03l47.5,47.5h54.32c5.87,0,10.64,4.76,10.64,10.64s-4.76,10.64-10.64,10.64h-57.41c-2.83,0-5.54-1.12-7.52-3.09l-50.59-50.59c-4.15-4.15-4.15-10.88,0-15.03Z"/>
          <g>
            <path class="cls-1" d="M581.15,467.43s0,.05,0,.07v113.35c0,5.92-4.8,10.71-10.71,10.71h-49.86c-2.82,0-5.52-1.11-7.5-3.09l-1.36-1.36c-4.15-4.15-4.15-10.88,0-15.03l39.13-39.13v-65.53c0-5.92,4.8-10.72,10.71-10.72h8.87c5.92,0,10.72,4.8,10.72,10.72Z"/>
            <path class="cls-1" d="M549.57,310.68l-57.21,97.14c-3.57,6.05-11.46,8.1-17.5,4.55h0c-6.08-3.57-8.13-11.49-4.58-17.56l58.98-100.14c3.26-5.54,9.26-8.94,15.73-8.94h.27c6.45,0,12.44,3.38,15.71,8.89l39.29,66.66,39.27-66.64c3.27-5.54,9.28-8.93,15.74-8.93h0c6.45,0,12.46,3.39,15.73,8.92l58.99,100.15c3.55,6.07,1.49,13.99-4.59,17.56h0c-6.06,3.55-13.93,1.51-17.49-4.55l-57.19-97.12-39.28,66.64c-3.32,5.64-9.43,9.1-16.02,9.07-6.59-.03-12.67-3.53-15.95-9.18l-39.28-66.63.48.11Z"/>
          </g>
        </g>
      </g>
    </g>
  </g>
  <g id="Layer_1" data-name="Layer 1">
    <g>
      <path class="cls-3" d="M140.54,862.57V723.64h48.34c27.64,0,49.72,22.08,49.72,49.72v39.49c0,27.64-22.08,49.72-49.72,49.72h-48.34Z"/>
      <path class="cls-3" d="M334.81,723.43c27.7,0,50.14,22.44,50.14,50.14v39.01c0,27.7-22.44,50.14-50.14,50.14s-50.14-22.44-50.14-50.14v-39.01c0-27.7,22.44-50.14,50.14-50.14Z"/>
      <path class="cls-3" d="M492.73,723.43c27.7,0,50.14,22.44,50.14,50.14v39.01c0,27.7-22.44,50.14-50.14,50.14s-50.14-22.44-50.14-50.14v-39.01c0-27.7,22.44-50.14,50.14-50.14Z"/>
      <path class="cls-3" d="M604.74,862.57V723.64h48.34c27.64,0,49.72,22.08,49.72,49.72v39.49c0,27.64-22.08,49.72-49.72,49.72h-48.34Z"/>
      <path class="cls-3" d="M759.06,862.57V723.64h48.34c27.64,0,49.72,22.08,49.72,49.72v39.49c0,27.64-22.08,49.72-49.72,49.72h-48.34Z"/>
      <path class="cls-3" d="M915.33,862.57V723.64h24.22v138.93h-24.22Z"/>
      <path class="cls-3" d="M1008,862.57V723.64h48.34c27.64,0,49.72,22.08,49.72,49.72v39.49c0,27.64-22.08,49.72-49.72,49.72h-48.34Z"/>
    </g>
  </g>
</svg>